<svg width="16" height="15" viewBox="0 0 16 15" fill="none" xmlns="http://www.w3.org/2000/svg">
<path d="M1.32756 0.757168C1.13331 0.757168 0.975433 0.587445 0.975433 0.378584C0.975433 0.169738 1.13329 0 1.32756 0H3.6C3.75647 0 3.88908 0.109313 3.93467 0.261318L4.98554 3.2094H15.6479C15.8421 3.2094 16 3.37912 16 3.58798C16 3.63355 15.9926 3.6775 15.9788 3.71766L14.1197 10.3744C14.0741 10.5383 13.9342 10.6446 13.7828 10.6446V10.645H7.03813C6.90285 10.645 6.77988 10.7044 6.69061 10.8004C6.60134 10.8963 6.54612 11.0286 6.54612 11.174V11.1844C6.54612 11.3304 6.60135 11.4629 6.69018 11.5585L6.69114 11.5574C6.7804 11.6534 6.90337 11.7128 7.03866 11.7128H13.1529C13.3476 11.7128 13.505 11.8825 13.505 12.0913C13.505 12.3002 13.3471 12.4699 13.1529 12.4699H7.03866C6.70914 12.4699 6.4099 12.3254 6.19307 12.0928L6.19403 12.0918L6.19307 12.0908C5.97677 11.8582 5.84234 11.5369 5.84234 11.1837V11.1733C5.84234 10.8191 5.97676 10.4973 6.19307 10.2648C6.40936 10.0322 6.70859 9.88768 7.03866 9.88768H13.5219L15.1758 3.96619H5.25648L6.95271 8.72559C7.02174 8.92063 6.93067 9.13938 6.74883 9.21358C6.56742 9.2878 6.36397 9.18987 6.29495 8.99438L4.42244 3.74009C4.41784 3.7287 4.41366 3.71731 4.41002 3.70546L3.35916 0.757082H1.32881L1.32756 0.757168ZM12.2094 13.3219C12.6403 13.3219 12.99 13.6974 12.99 14.1607C12.99 14.6244 12.6407 15 12.2094 15C11.7785 15 11.4291 14.6244 11.4291 14.1607C11.4291 13.6974 11.7785 13.3219 12.2094 13.3219ZM7.47602 13.3219C7.90691 13.3219 8.25624 13.6974 8.25624 14.1607C8.25624 14.6244 7.90691 15 7.47602 15C7.04471 15 6.69539 14.6244 6.69539 14.1607C6.69539 13.6974 7.04471 13.3219 7.47602 13.3219Z" fill="white"/>
</svg>
