<svg width="27" height="25" viewBox="0 0 27 25" fill="none" xmlns="http://www.w3.org/2000/svg">
<g filter="url(#filter0_d_32_751)">
<path d="M22.5714 2.29351C21.8888 2.61187 21.1548 2.82411 20.3805 2.92441C21.1678 2.4325 21.7734 1.6479 22.0576 0.7209C21.321 1.1755 20.5051 1.50926 19.6368 1.68521C18.9435 0.911572 17.9545 0.431641 16.8589 0.431641C14.7542 0.431641 13.0485 2.2117 13.0485 4.40631C13.0485 4.71679 13.083 5.0194 13.148 5.31311C9.9818 5.14572 7.17367 3.56146 5.29496 1.15702C4.96488 1.74443 4.77919 2.4325 4.77919 3.15855C4.77919 4.53844 5.45041 5.75299 6.47383 6.46878C5.84911 6.44858 5.26114 6.26579 4.74634 5.97242C4.74634 5.9844 4.74634 6.0022 4.74634 6.01897C4.74634 7.94726 6.06017 9.55273 7.80164 9.91833C7.48326 10.0101 7.147 10.0611 6.80033 10.0611C6.55415 10.0611 6.31448 10.0316 6.08228 9.98782C6.56716 11.5635 7.97399 12.7154 9.64067 12.7493C8.3366 13.8136 6.69432 14.451 4.9083 14.451C4.59968 14.451 4.29821 14.4325 4 14.3945C5.68683 15.519 7.69042 16.1783 9.84099 16.1783C16.8488 16.1783 20.6823 10.1206 20.6823 4.8657C20.6823 4.69351 20.6771 4.52201 20.6693 4.35256C21.4176 3.79664 22.0622 3.09488 22.5714 2.29351Z" fill="#696969"/>
<path d="M9.65083 12.2494C8.48002 12.2256 7.44495 11.559 6.87233 10.5604C7.24265 10.5538 7.60098 10.4965 7.94008 10.3988L7.90436 9.429C6.63173 9.16183 5.60609 8.11901 5.3237 6.77072C5.6829 6.88623 6.06323 6.95577 6.45767 6.96852L8.13842 7.02286L6.7604 6.05905C5.86979 5.43615 5.27919 4.37406 5.27919 3.15855C5.27919 2.78991 5.33343 2.43358 5.43428 2.0999C7.37625 4.25291 10.0897 5.65212 13.1216 5.81241L13.7784 5.84714L13.6362 5.20501C13.5788 4.94589 13.5485 4.67952 13.5485 4.40631C13.5485 2.46768 15.0501 0.931641 16.8589 0.931641C17.8043 0.931641 18.6604 1.3449 19.2644 2.01891L19.4555 2.23211L19.7361 2.17525C20.1255 2.09635 20.5046 1.98788 20.8713 1.85289C20.6511 2.10623 20.3962 2.32505 20.1156 2.50037L20.4448 3.42027C20.6742 3.39055 20.9004 3.35157 21.1233 3.30343C20.8873 3.53775 20.636 3.75444 20.3711 3.95121L20.1576 4.10984L20.1698 4.37557C20.1774 4.53993 20.1823 4.70339 20.1823 4.8657C20.1823 9.92684 16.497 15.6783 9.84099 15.6783C8.46468 15.6783 7.15104 15.3947 5.94872 14.8826C7.4514 14.6837 8.82523 14.0602 9.9568 13.1367L11.0101 12.2771L9.65083 12.2494Z" stroke="black"/>
</g>
<defs>
<filter id="filter0_d_32_751" x="0" y="0.431641" width="26.5714" height="23.7466" filterUnits="userSpaceOnUse" color-interpolation-filters="sRGB">
<feFlood flood-opacity="0" result="BackgroundImageFix"/>
<feColorMatrix in="SourceAlpha" type="matrix" values="0 0 0 0 0 0 0 0 0 0 0 0 0 0 0 0 0 0 127 0" result="hardAlpha"/>
<feOffset dy="4"/>
<feGaussianBlur stdDeviation="2"/>
<feComposite in2="hardAlpha" operator="out"/>
<feColorMatrix type="matrix" values="0 0 0 0 0 0 0 0 0 0 0 0 0 0 0 0 0 0 0.25 0"/>
<feBlend mode="normal" in2="BackgroundImageFix" result="effect1_dropShadow_32_751"/>
<feBlend mode="normal" in="SourceGraphic" in2="effect1_dropShadow_32_751" result="shape"/>
</filter>
</defs>
</svg>
